<svg xmlns="http://www.w3.org/2000/svg" viewBox="0 0 1600 1000" font-family="Inter, -apple-system, system-ui, sans-serif">
  <defs>
    <linearGradient id="avatar" x1="0" y1="0" x2="1" y2="1">
      <stop offset="0" stop-color="#5B8DEF"/>
      <stop offset="1" stop-color="#A78BFA"/>
    </linearGradient>
    <linearGradient id="panel" x1="0" y1="0" x2="0" y2="1">
      <stop offset="0" stop-color="#1A2230"/>
      <stop offset="1" stop-color="#141A24"/>
    </linearGradient>
    <filter id="glow" x="-50%" y="-50%" width="200%" height="200%">
      <feGaussianBlur stdDeviation="6" result="b"/>
      <feMerge><feMergeNode in="b"/><feMergeNode in="SourceGraphic"/></feMerge>
    </filter>
  </defs>

  <!-- global bg -->
  <rect width="1600" height="1000" fill="#0A0E14"/>

  <!-- SIDEBAR -->
  <rect x="0" y="0" width="300" height="1000" fill="#0C1119"/>
  <!-- profile -->
  <circle cx="50" cy="50" r="22" fill="url(#avatar)"/>
  <text x="82" y="47" fill="#F4F7FA" font-size="15" font-weight="600">Austin McNair</text>
  <text x="82" y="66" fill="#8A97A8" font-size="12">Special Ed. Teacher</text>

  <!-- sidebar section: ACTIVE CLASSES -->
  <text x="24" y="122" fill="#6E7C8C" font-size="10" letter-spacing="1.5" font-weight="600">ACTIVE CLASSES</text>

  <!-- class 1 -->
  <rect x="16" y="140" width="268" height="60" rx="8" fill="#141A24"/>
  <text x="30" y="162" fill="#8A97A8" font-size="10.5" letter-spacing="0.6">PUSH-IN · 8:30–9:20</text>
  <text x="30" y="182" fill="#F4F7FA" font-size="13" font-weight="600">6th Grade I&amp;S</text>
  <text x="30" y="198" fill="#8A97A8" font-size="11">Mr. Stringer</text>

  <!-- class 2 SELECTED -->
  <rect x="16" y="210" width="268" height="60" rx="8" fill="#17202E" stroke="#4FD1E0" stroke-width="1.5"/>
  <rect x="16" y="210" width="3" height="60" rx="1.5" fill="#4FD1E0"/>
  <text x="30" y="232" fill="#4FD1E0" font-size="10.5" letter-spacing="0.6">PULL-OUT · 9:20–9:40</text>
  <text x="30" y="252" fill="#F4F7FA" font-size="13" font-weight="600">8th Grade Math</text>
  <text x="30" y="268" fill="#8A97A8" font-size="11">Pull-out group</text>

  <!-- class 3 -->
  <rect x="16" y="280" width="268" height="60" rx="8" fill="#141A24"/>
  <text x="30" y="302" fill="#8A97A8" font-size="10.5" letter-spacing="0.6">PULL-OUT · 9:55–10:20</text>
  <text x="30" y="322" fill="#F4F7FA" font-size="13" font-weight="600">7th Grade ELA</text>
  <text x="30" y="338" fill="#8A97A8" font-size="11">Pull-out group</text>

  <!-- class 4 -->
  <rect x="16" y="350" width="268" height="60" rx="8" fill="#141A24"/>
  <text x="30" y="372" fill="#8A97A8" font-size="10.5" letter-spacing="0.6">PUSH-IN · 10:20–11:00</text>
  <text x="30" y="392" fill="#F4F7FA" font-size="13" font-weight="600">7th Grade I&amp;S</text>
  <text x="30" y="408" fill="#8A97A8" font-size="11">Mr. Stringer</text>

  <!-- class 5 -->
  <rect x="16" y="420" width="268" height="60" rx="8" fill="#141A24"/>
  <text x="30" y="442" fill="#8A97A8" font-size="10.5" letter-spacing="0.6">PULL-OUT · 12:15–12:55</text>
  <text x="30" y="462" fill="#F4F7FA" font-size="13" font-weight="600">6th Grade Math</text>
  <text x="30" y="478" fill="#8A97A8" font-size="11">Pull-out group</text>

  <!-- roster & setup -->
  <text x="24" y="530" fill="#6E7C8C" font-size="10" letter-spacing="1.5" font-weight="600">ROSTER &amp; SETUP</text>
  <text x="24" y="562" fill="#C8D0DC" font-size="13">◔ Edit Class Roster</text>
  <text x="24" y="590" fill="#C8D0DC" font-size="13">◔ Edit Schedule</text>

  <!-- data & backup -->
  <text x="24" y="640" fill="#6E7C8C" font-size="10" letter-spacing="1.5" font-weight="600">DATA &amp; BACKUP</text>
  <text x="24" y="672" fill="#C8D0DC" font-size="13">↓ Backup Now</text>

  <!-- MAIN AREA -->
  <!-- header -->
  <text x="340" y="70" fill="#F4F7FA" font-size="30" font-weight="700">8th Grade Math</text>
  <text x="340" y="94" fill="#8A97A8" font-size="13">Pull-out · 5 students · Tue Jul 28</text>

  <!-- backup pill -->
  <rect x="1440" y="46" width="140" height="30" rx="15" fill="#0F1E17" stroke="#1F3B2A"/>
  <circle cx="1458" cy="61" r="4" fill="#4ADE80"/>
  <text x="1470" y="65" fill="#8FDDAF" font-size="12">All backups synced</text>

  <!-- day tabs -->
  <g transform="translate(340,120)">
    <rect x="0" y="0" width="60" height="34" rx="6" fill="#141A24"/><text x="30" y="22" text-anchor="middle" fill="#8A97A8" font-size="13">Mon</text>
    <rect x="66" y="0" width="60" height="34" rx="6" fill="#17202E" stroke="#4FD1E0" stroke-width="1"/><text x="96" y="22" text-anchor="middle" fill="#4FD1E0" font-size="13" font-weight="600">Tue</text>
    <rect x="132" y="0" width="60" height="34" rx="6" fill="#141A24"/><text x="162" y="22" text-anchor="middle" fill="#8A97A8" font-size="13">Wed</text>
    <rect x="198" y="0" width="60" height="34" rx="6" fill="#141A24"/><text x="228" y="22" text-anchor="middle" fill="#8A97A8" font-size="13">Thu</text>
    <rect x="264" y="0" width="60" height="34" rx="6" fill="#141A24"/><text x="294" y="22" text-anchor="middle" fill="#8A97A8" font-size="13">Fri</text>
    <!-- week -->
    <rect x="1080" y="0" width="160" height="34" rx="6" fill="#141A24"/>
    <text x="1094" y="22" fill="#C8D0DC" font-size="12">Week of Jul 27</text>
    <text x="1228" y="22" fill="#8A97A8" font-size="12">▾</text>
  </g>

  <!-- KPI ROW -->
  <g transform="translate(340,180)">
    <!-- card 1 -->
    <rect x="0" y="0" width="290" height="90" rx="10" fill="url(#panel)"/>
    <text x="20" y="30" fill="#6E7C8C" font-size="10" letter-spacing="1.4" font-weight="600">ACTIVE / PRESENT</text>
    <text x="20" y="70" fill="#F4F7FA" font-size="32" font-weight="700">5 / 5</text>
    <circle cx="255" cy="55" r="18" fill="#0F1E17"/><text x="255" y="61" text-anchor="middle" fill="#4ADE80" font-size="18">✓</text>

    <rect x="306" y="0" width="290" height="90" rx="10" fill="url(#panel)"/>
    <text x="326" y="30" fill="#6E7C8C" font-size="10" letter-spacing="1.4" font-weight="600">MET GOAL TODAY</text>
    <text x="326" y="70" fill="#F4F7FA" font-size="32" font-weight="700">3 <tspan fill="#6E7C8C" font-size="20">/ 5</tspan></text>
    <circle cx="561" cy="55" r="18" fill="#122019"/><text x="561" y="61" text-anchor="middle" fill="#4ADE80" font-size="18">●</text>

    <rect x="612" y="0" width="290" height="90" rx="10" fill="url(#panel)"/>
    <text x="632" y="30" fill="#6E7C8C" font-size="10" letter-spacing="1.4" font-weight="600">PROGRESSING</text>
    <text x="632" y="70" fill="#F4F7FA" font-size="32" font-weight="700">1 <tspan fill="#6E7C8C" font-size="20">/ 5</tspan></text>
    <circle cx="867" cy="55" r="18" fill="#111826"/><text x="867" y="61" text-anchor="middle" fill="#4FD1E0" font-size="18">●</text>

    <rect x="918" y="0" width="290" height="90" rx="10" fill="url(#panel)"/>
    <text x="938" y="30" fill="#6E7C8C" font-size="10" letter-spacing="1.4" font-weight="600">NEEDS SUPPORT</text>
    <text x="938" y="70" fill="#F4F7FA" font-size="32" font-weight="700">1 <tspan fill="#6E7C8C" font-size="20">/ 5</tspan></text>
    <circle cx="1173" cy="55" r="18" fill="#201414"/><text x="1173" y="61" text-anchor="middle" fill="#F87171" font-size="18">●</text>
  </g>

  <!-- STUDENT CARDS -->
  <!-- card 1: A.T. -->
  <g transform="translate(340,300)">
    <rect x="0" y="0" width="400" height="330" rx="12" fill="url(#panel)"/>
    <rect x="0" y="0" width="4" height="330" fill="#4ADE80"/>
    <circle cx="34" cy="36" r="18" fill="#1D2A22"/><text x="34" y="42" text-anchor="middle" fill="#4ADE80" font-size="14" font-weight="700">A</text>
    <text x="62" y="34" fill="#F4F7FA" font-size="17" font-weight="700">A.T.</text>
    <text x="62" y="52" fill="#8A97A8" font-size="12">Two-step equations</text>
    <text x="326" y="34" fill="#4FD1E0" font-size="11" font-weight="600">Progress</text>
    <text x="326" y="48" fill="#4FD1E0" font-size="11" font-weight="600">Charts →</text>

    <!-- notes -->
    <rect x="16" y="70" width="368" height="60" rx="6" fill="#0E141C" stroke="#1B2431"/>
    <text x="26" y="92" fill="#C8D0DC" font-size="12">Solved 3/4 without prompting.</text>
    <text x="26" y="110" fill="#C8D0DC" font-size="12">Struggled to isolate variable on #4 — used chart.</text>

    <!-- STATUS row -->
    <rect x="16" y="146" width="368" height="34" rx="6" fill="#0E141C"/>
    <rect x="16" y="146" width="3" height="34" fill="#4ADE80"/>
    <text x="28" y="167" fill="#6E7C8C" font-size="10" letter-spacing="1.2" font-weight="600">STATUS</text>
    <text x="360" y="167" text-anchor="end" fill="#4ADE80" font-size="12" font-weight="600">Present</text>

    <!-- GOAL row -->
    <rect x="16" y="186" width="368" height="34" rx="6" fill="#0E141C"/>
    <rect x="16" y="186" width="3" height="34" fill="#4FD1E0"/>
    <text x="28" y="207" fill="#6E7C8C" font-size="10" letter-spacing="1.2" font-weight="600">GOAL</text>
    <!-- tri-state dots -->
    <circle cx="290" cy="203" r="7" fill="#2A1418" stroke="#F87171"/>
    <circle cx="312" cy="203" r="7" fill="#0F2029" stroke="#4FD1E0"/>
    <circle cx="334" cy="203" r="8" fill="#4ADE80"/>
    <text x="360" y="207" text-anchor="end" fill="#4ADE80" font-size="12" font-weight="600">Met</text>

    <!-- INDEP row -->
    <rect x="16" y="226" width="368" height="34" rx="6" fill="#0E141C"/>
    <rect x="16" y="226" width="3" height="34" fill="#A78BFA"/>
    <text x="28" y="247" fill="#6E7C8C" font-size="10" letter-spacing="1.2" font-weight="600">INDEP</text>
    <circle cx="290" cy="243" r="7" fill="#2A1418" stroke="#F87171"/>
    <circle cx="312" cy="243" r="8" fill="#4FD1E0"/>
    <circle cx="334" cy="243" r="7" fill="#12261D" stroke="#4ADE80"/>
    <text x="360" y="247" text-anchor="end" fill="#4FD1E0" font-size="12" font-weight="600">Progressing</text>

    <!-- INTERV row -->
    <rect x="16" y="266" width="368" height="46" rx="6" fill="#0E141C"/>
    <rect x="16" y="266" width="3" height="46" fill="#F5A623"/>
    <text x="28" y="286" fill="#6E7C8C" font-size="10" letter-spacing="1.2" font-weight="600">INTERV</text>
    <g font-size="10.5" font-weight="500">
      <rect x="28" y="292" width="80" height="16" rx="8" fill="#2A1F0E"/><text x="68" y="304" text-anchor="middle" fill="#F5A623">Sentence frame</text>
      <rect x="114" y="292" width="76" height="16" rx="8" fill="#2A1F0E"/><text x="152" y="304" text-anchor="middle" fill="#F5A623">Anchor chart</text>
      <rect x="196" y="292" width="60" height="16" rx="8" fill="#2A1F0E"/><text x="226" y="304" text-anchor="middle" fill="#F5A623">1:1 check</text>
    </g>
    <text x="360" y="288" text-anchor="end" fill="#F5A623" font-size="12" font-weight="700">3</text>
  </g>

  <!-- card 2: J.M. -->
  <g transform="translate(760,300)">
    <rect x="0" y="0" width="400" height="330" rx="12" fill="url(#panel)"/>
    <rect x="0" y="0" width="4" height="330" fill="#4FD1E0"/>
    <circle cx="34" cy="36" r="18" fill="#152229"/><text x="34" y="42" text-anchor="middle" fill="#4FD1E0" font-size="14" font-weight="700">J</text>
    <text x="62" y="34" fill="#F4F7FA" font-size="17" font-weight="700">J.M.</text>
    <text x="62" y="52" fill="#8A97A8" font-size="12">Fluency w/ integer operations</text>
    <text x="326" y="34" fill="#4FD1E0" font-size="11" font-weight="600">Progress</text>
    <text x="326" y="48" fill="#4FD1E0" font-size="11" font-weight="600">Charts →</text>

    <rect x="16" y="70" width="368" height="60" rx="6" fill="#0E141C" stroke="#1B2431"/>
    <text x="26" y="92" fill="#C8D0DC" font-size="12">Warm-up correct in 6/8. Needed number line</text>
    <text x="26" y="110" fill="#C8D0DC" font-size="12">for negatives. Beat previous timing by :40.</text>

    <rect x="16" y="146" width="368" height="34" rx="6" fill="#0E141C"/>
    <rect x="16" y="146" width="3" height="34" fill="#4ADE80"/>
    <text x="28" y="167" fill="#6E7C8C" font-size="10" letter-spacing="1.2" font-weight="600">STATUS</text>
    <text x="360" y="167" text-anchor="end" fill="#4ADE80" font-size="12" font-weight="600">Present</text>

    <rect x="16" y="186" width="368" height="34" rx="6" fill="#0E141C"/>
    <rect x="16" y="186" width="3" height="34" fill="#4FD1E0"/>
    <text x="28" y="207" fill="#6E7C8C" font-size="10" letter-spacing="1.2" font-weight="600">GOAL</text>
    <circle cx="290" cy="203" r="7" fill="#2A1418" stroke="#F87171"/>
    <circle cx="312" cy="203" r="8" fill="#4FD1E0"/>
    <circle cx="334" cy="203" r="7" fill="#12261D" stroke="#4ADE80"/>
    <text x="360" y="207" text-anchor="end" fill="#4FD1E0" font-size="12" font-weight="600">Progressing</text>

    <rect x="16" y="226" width="368" height="34" rx="6" fill="#0E141C"/>
    <rect x="16" y="226" width="3" height="34" fill="#A78BFA"/>
    <text x="28" y="247" fill="#6E7C8C" font-size="10" letter-spacing="1.2" font-weight="600">INDEP</text>
    <circle cx="290" cy="243" r="7" fill="#2A1418" stroke="#F87171"/>
    <circle cx="312" cy="243" r="8" fill="#4FD1E0"/>
    <circle cx="334" cy="243" r="7" fill="#12261D" stroke="#4ADE80"/>
    <text x="360" y="247" text-anchor="end" fill="#4FD1E0" font-size="12" font-weight="600">Progressing</text>

    <rect x="16" y="266" width="368" height="46" rx="6" fill="#0E141C"/>
    <rect x="16" y="266" width="3" height="46" fill="#F5A623"/>
    <text x="28" y="286" fill="#6E7C8C" font-size="10" letter-spacing="1.2" font-weight="600">INTERV</text>
    <g font-size="10.5" font-weight="500">
      <rect x="28" y="292" width="72" height="16" rx="8" fill="#2A1F0E"/><text x="64" y="304" text-anchor="middle" fill="#F5A623">Number line</text>
      <rect x="106" y="292" width="76" height="16" rx="8" fill="#2A1F0E"/><text x="144" y="304" text-anchor="middle" fill="#F5A623">Timed round</text>
    </g>
    <text x="360" y="288" text-anchor="end" fill="#F5A623" font-size="12" font-weight="700">2</text>
  </g>

  <!-- card 3: R.C. -->
  <g transform="translate(1180,300)">
    <rect x="0" y="0" width="400" height="330" rx="12" fill="url(#panel)"/>
    <rect x="0" y="0" width="4" height="330" fill="#F87171"/>
    <circle cx="34" cy="36" r="18" fill="#2A1418"/><text x="34" y="42" text-anchor="middle" fill="#F87171" font-size="14" font-weight="700">R</text>
    <text x="62" y="34" fill="#F4F7FA" font-size="17" font-weight="700">R.C.</text>
    <text x="62" y="52" fill="#8A97A8" font-size="12">Word problem decomposition</text>
    <text x="326" y="34" fill="#4FD1E0" font-size="11" font-weight="600">Progress</text>
    <text x="326" y="48" fill="#4FD1E0" font-size="11" font-weight="600">Charts →</text>

    <rect x="16" y="70" width="368" height="60" rx="6" fill="#0E141C" stroke="#1B2431"/>
    <text x="26" y="92" fill="#C8D0DC" font-size="12">Refused to start. Redirected twice. Completed</text>
    <text x="26" y="110" fill="#C8D0DC" font-size="12">step 1 with peer partner. Plan: shorten task.</text>

    <rect x="16" y="146" width="368" height="34" rx="6" fill="#0E141C"/>
    <rect x="16" y="146" width="3" height="34" fill="#4ADE80"/>
    <text x="28" y="167" fill="#6E7C8C" font-size="10" letter-spacing="1.2" font-weight="600">STATUS</text>
    <text x="360" y="167" text-anchor="end" fill="#4ADE80" font-size="12" font-weight="600">Present</text>

    <rect x="16" y="186" width="368" height="34" rx="6" fill="#0E141C"/>
    <rect x="16" y="186" width="3" height="34" fill="#4FD1E0"/>
    <text x="28" y="207" fill="#6E7C8C" font-size="10" letter-spacing="1.2" font-weight="600">GOAL</text>
    <circle cx="290" cy="203" r="8" fill="#F87171"/>
    <circle cx="312" cy="203" r="7" fill="#0F2029" stroke="#4FD1E0"/>
    <circle cx="334" cy="203" r="7" fill="#12261D" stroke="#4ADE80"/>
    <text x="360" y="207" text-anchor="end" fill="#F87171" font-size="12" font-weight="600">Not met</text>

    <rect x="16" y="226" width="368" height="34" rx="6" fill="#0E141C"/>
    <rect x="16" y="226" width="3" height="34" fill="#A78BFA"/>
    <text x="28" y="247" fill="#6E7C8C" font-size="10" letter-spacing="1.2" font-weight="600">INDEP</text>
    <circle cx="290" cy="243" r="8" fill="#F87171"/>
    <circle cx="312" cy="243" r="7" fill="#0F2029" stroke="#4FD1E0"/>
    <circle cx="334" cy="243" r="7" fill="#12261D" stroke="#4ADE80"/>
    <text x="360" y="247" text-anchor="end" fill="#F87171" font-size="12" font-weight="600">Not met</text>

    <rect x="16" y="266" width="368" height="46" rx="6" fill="#0E141C"/>
    <rect x="16" y="266" width="3" height="46" fill="#F5A623"/>
    <text x="28" y="286" fill="#6E7C8C" font-size="10" letter-spacing="1.2" font-weight="600">INTERV</text>
    <g font-size="10.5" font-weight="500">
      <rect x="28" y="292" width="70" height="16" rx="8" fill="#2A1F0E"/><text x="63" y="304" text-anchor="middle" fill="#F5A623">Redirect</text>
      <rect x="104" y="292" width="88" height="16" rx="8" fill="#2A1F0E"/><text x="148" y="304" text-anchor="middle" fill="#F5A623">Peer partner</text>
      <rect x="198" y="292" width="80" height="16" rx="8" fill="#2A1F0E"/><text x="238" y="304" text-anchor="middle" fill="#F5A623">Task chunk</text>
      <rect x="284" y="292" width="76" height="16" rx="8" fill="#2A1F0E"/><text x="322" y="304" text-anchor="middle" fill="#F5A623">Break card</text>
    </g>
    <text x="360" y="288" text-anchor="end" fill="#F5A623" font-size="12" font-weight="700">4</text>
  </g>

  <!-- second row (partial, hint of scroll) -->
  <g transform="translate(340,660)" opacity="0.9">
    <rect x="0" y="0" width="400" height="140" rx="12" fill="url(#panel)"/>
    <rect x="0" y="0" width="4" height="140" fill="#4FD1E0"/>
    <circle cx="34" cy="36" r="18" fill="#152229"/><text x="34" y="42" text-anchor="middle" fill="#4FD1E0" font-size="14" font-weight="700">D</text>
    <text x="62" y="34" fill="#F4F7FA" font-size="17" font-weight="700">D.P.</text>
    <text x="62" y="52" fill="#8A97A8" font-size="12">Multi-step problem solving</text>
    <text x="326" y="34" fill="#4FD1E0" font-size="11" font-weight="600">Progress</text>
    <text x="326" y="48" fill="#4FD1E0" font-size="11" font-weight="600">Charts →</text>
    <rect x="16" y="70" width="368" height="60" rx="6" fill="#0E141C" stroke="#1B2431"/>
    <text x="26" y="102" fill="#5A6478" font-size="12" letter-spacing="0.5">Type direct class feedback notes here…</text>
  </g>

  <g transform="translate(760,660)" opacity="0.9">
    <rect x="0" y="0" width="400" height="140" rx="12" fill="url(#panel)"/>
    <rect x="0" y="0" width="4" height="140" fill="#A78BFA"/>
    <circle cx="34" cy="36" r="18" fill="#221D2E"/><text x="34" y="42" text-anchor="middle" fill="#A78BFA" font-size="14" font-weight="700">M</text>
    <text x="62" y="34" fill="#F4F7FA" font-size="17" font-weight="700">M.G.</text>
    <text x="62" y="52" fill="#8A97A8" font-size="12">Explain work in writing</text>
    <text x="326" y="34" fill="#4FD1E0" font-size="11" font-weight="600">Progress</text>
    <text x="326" y="48" fill="#4FD1E0" font-size="11" font-weight="600">Charts →</text>
    <rect x="16" y="70" width="368" height="60" rx="6" fill="#0E141C" stroke="#1B2431"/>
    <text x="26" y="102" fill="#5A6478" font-size="12" letter-spacing="0.5">Type direct class feedback notes here…</text>
  </g>

  <!-- LESSON OUTLINE panel on the right -->
  <g transform="translate(1180,660)">
    <rect x="0" y="0" width="400" height="140" rx="12" fill="url(#panel)"/>
    <text x="16" y="30" fill="#6E7C8C" font-size="10" letter-spacing="1.4" font-weight="600">TARGET LESSON OBJECTIVE</text>
    <text x="16" y="58" fill="#F4F7FA" font-size="14" font-weight="600">Solve two-step equations with</text>
    <text x="16" y="76" fill="#F4F7FA" font-size="14" font-weight="600">integer coefficients.</text>
    <text x="16" y="106" fill="#8A97A8" font-size="12">Warm-up (5) → I do (7) → We do (8) → You do (5)</text>
  </g>

  <!-- fade at bottom to imply scroll -->
  <rect x="300" y="880" width="1300" height="120" fill="url(#fade)" opacity="0"/>

  <!-- subtle bottom scroll fade -->
  <defs>
    <linearGradient id="fadeD" x1="0" y1="0" x2="0" y2="1">
      <stop offset="0" stop-color="#0A0E14" stop-opacity="0"/>
      <stop offset="1" stop-color="#0A0E14"/>
    </linearGradient>
  </defs>
  <rect x="300" y="820" width="1300" height="180" fill="url(#fadeD)"/>
</svg>
